<?xml version="1.0" standalone="no"?>
<!DOCTYPE svg PUBLIC "-//W3C//DTD SVG 20010904//EN"
 "http://www.w3.org/TR/2001/REC-SVG-20010904/DTD/svg10.dtd">
<svg version="1.0" xmlns="http://www.w3.org/2000/svg"
 width="144.000000pt" height="112.000000pt" viewBox="0 0 144.000000 112.000000"
 preserveAspectRatio="xMidYMid meet">

<g transform="translate(0.000000,112.000000) scale(0.100000,-0.100000)"
fill="#000000" stroke="none">
<path d="M1115 1041 c-3 -5 -20 -13 -38 -17 -27 -5 -152 -59 -166 -70 -6 -6
32 -74 41 -74 5 0 8 -56 8 -124 l0 -125 -47 -4 -48 -4 50 2 c28 1 61 6 75 10
23 6 22 5 -4 -9 -15 -9 -42 -16 -60 -16 -36 -1 -191 -38 -161 -39 11 0 45 6
75 14 80 22 358 31 446 15 38 -7 84 -19 102 -26 l32 -13 -2 227 -3 227 -28 2
c-15 1 -25 -2 -22 -8 7 -11 -44 7 -61 22 -16 13 -97 16 -149 6 -29 -6 -36 -6
-25 2 9 7 10 11 3 11 -6 0 -14 -4 -18 -9z"/>
<path d="M20 546 l0 -442 58 -19 c82 -27 285 -32 433 -10 63 9 119 21 125 26
6 5 13 7 16 4 3 -3 65 6 139 21 90 17 185 27 289 31 136 5 166 3 243 -16 49
-11 90 -21 93 -21 2 0 4 10 4 23 0 18 -2 19 -10 7 -7 -11 -10 -11 -10 -2 0 7
-4 11 -9 8 -4 -3 -33 3 -64 14 -39 14 -83 20 -140 20 -85 0 -349 -32 -416 -50
-20 -5 -94 -20 -166 -31 -254 -43 -536 -23 -560 39 -10 27 -18 265 -11 326 7
56 8 58 34 52 113 -24 216 -29 329 -17 135 14 247 38 198 41 -16 1 -34 2 -39
1 -12 -2 3 163 15 167 5 2 9 21 9 43 0 21 5 39 10 39 6 0 10 7 10 15 0 8 9 24
20 35 24 24 26 46 4 54 -8 3 -59 3 -112 0 -121 -6 -99 -7 -222 3 -78 6 -104
12 -102 21 1 8 -1 11 -6 8 -11 -7 -94 14 -112 29 -8 7 -23 15 -32 18 -17 6
-18 -20 -18 -437z"/>
<path d="M408 913 c7 -3 16 -2 19 1 4 3 -2 6 -13 5 -11 0 -14 -3 -6 -6z"/>
<path d="M738 913 c12 -2 32 -2 45 0 12 2 2 4 -23 4 -25 0 -35 -2 -22 -4z"/>
<path d="M828 613 c7 -3 16 -2 19 1 4 3 -2 6 -13 5 -11 0 -14 -3 -6 -6z"/>
<path d="M643 553 c9 -2 23 -2 30 0 6 3 -1 5 -18 5 -16 0 -22 -2 -12 -5z"/>
</g>
</svg>
